<?xml version="1.0" encoding="UTF-8"?>
<!DOCTYPE svg PUBLIC "-//W3C//DTD SVG 1.1//EN" "http://www.w3.org/Graphics/SVG/1.1/DTD/svg11.dtd">
<svg xmlns="http://www.w3.org/2000/svg" version="1.1" width="512px" height="512px" style="shape-rendering:geometricPrecision; text-rendering:geometricPrecision; image-rendering:optimizeQuality; fill-rule:evenodd; clip-rule:evenodd" xmlns:xlink="http://www.w3.org/1999/xlink">
<g><path style="opacity:0.987" fill="#e8ebff" d="M 350.5,182.5 C 307.572,183.494 264.572,183.828 221.5,183.5C 221.682,176.799 223.849,170.799 228,165.5C 251.216,136.069 280.382,128.236 315.5,142C 332.744,150.74 344.411,164.24 350.5,182.5 Z"/></g>
<g><path style="opacity:0.963" fill="#e7eeff" d="M 146.5,179.5 C 159.32,178.153 164.82,183.819 163,196.5C 159.345,203.07 153.845,205.237 146.5,203C 139.93,199.345 137.763,193.845 140,186.5C 141.694,183.642 143.861,181.309 146.5,179.5 Z M 149.5,188.5 C 154.159,188.015 155.492,189.848 153.5,194C 148.728,194.81 147.395,192.977 149.5,188.5 Z"/></g>
<g><path style="opacity:0.987" fill="#e7eefe" d="M 350.5,182.5 C 352.963,190.636 353.963,198.969 353.5,207.5C 334.069,208.155 314.735,208.822 295.5,209.5C 287.11,209.387 279.943,206.387 274,200.5C 272.167,201 271,202.167 270.5,204C 271.315,205.643 272.315,207.143 273.5,208.5C 270.833,208.5 268.167,208.5 265.5,208.5C 264.185,207.524 262.852,206.524 261.5,205.5C 260.479,207.188 259.145,208.521 257.5,209.5C 253.395,208.891 249.395,208.225 245.5,207.5C 258.435,198.523 256.768,194.69 240.5,196C 236.49,199.195 234.49,203.362 234.5,208.5C 231.145,208.909 228.145,208.242 225.5,206.5C 225.737,202.29 227.07,198.456 229.5,195C 225.413,192.092 222.747,188.259 221.5,183.5C 264.572,183.828 307.572,183.494 350.5,182.5 Z"/></g>
<g><path style="opacity:0.917" fill="#e7f1ff" d="M 225.5,206.5 C 228.145,208.242 231.145,208.909 234.5,208.5C 235.538,216.704 234.038,224.371 230,231.5C 225.562,235.625 221.062,239.625 216.5,243.5C 213.833,242.833 211.167,242.167 208.5,241.5C 208.709,240.078 209.209,238.745 210,237.5C 214.946,233.044 219.613,228.377 224,223.5C 225.351,217.928 225.851,212.262 225.5,206.5 Z"/></g>
<g><path style="opacity:0.979" fill="#e8f0fe" d="M 353.5,207.5 C 353.187,217.417 350.687,226.75 346,235.5C 341.327,240.19 335.827,241.523 329.5,239.5C 327.808,242.231 326.142,244.898 324.5,247.5C 321.059,246.903 317.725,246.237 314.5,245.5C 324.015,235.083 322.015,227.749 308.5,223.5C 307.242,227.65 307.242,231.817 308.5,236C 308.226,239.592 307.559,243.092 306.5,246.5C 303.167,246.5 299.833,246.5 296.5,246.5C 298,243.165 299,239.665 299.5,236C 298.21,231.483 298.21,226.983 299.5,222.5C 297.801,222.34 296.134,222.506 294.5,223C 289.956,228.04 285.622,233.206 281.5,238.5C 271.75,238.806 262.084,238.473 252.5,237.5C 253.315,227.204 257.815,218.871 266,212.5C 266.195,211.181 266.028,209.847 265.5,208.5C 268.167,208.5 270.833,208.5 273.5,208.5C 278.862,212.929 285.028,215.595 292,216.5C 297.499,216.144 298.666,213.81 295.5,209.5C 314.735,208.822 334.069,208.155 353.5,207.5 Z"/></g>
<g><path style="opacity:0.929" fill="#e8f0fe" d="M 245.5,207.5 C 249.395,208.225 253.395,208.891 257.5,209.5C 255.188,211.636 252.688,213.636 250,215.5C 248.414,217.67 247.08,220.004 246,222.5C 245.667,228.833 245.333,235.167 245,241.5C 244.33,244.174 243.163,246.507 241.5,248.5C 239.012,246.612 236.012,245.945 232.5,246.5C 233.64,244.22 234.807,241.886 236,239.5C 236.151,232.104 236.818,224.771 238,217.5C 239.791,213.561 242.291,210.228 245.5,207.5 Z"/></g>
<g><path style="opacity:0.941" fill="#e7f3ff" d="M 146.5,235.5 C 159.32,234.153 164.82,239.819 163,252.5C 159.345,259.07 153.845,261.237 146.5,259C 139.93,255.345 137.763,249.845 140,242.5C 141.694,239.642 143.861,237.309 146.5,235.5 Z M 149.5,244.5 C 154.159,244.015 155.492,245.848 153.5,250C 148.728,250.81 147.395,248.977 149.5,244.5 Z"/></g>
<g><path style="opacity:0.931" fill="#e7f4ff" d="M 208.5,241.5 C 211.167,242.167 213.833,242.833 216.5,243.5C 215.012,248.36 214.179,253.36 214,258.5C 210.988,261.25 208.321,260.917 206,257.5C 204.936,251.738 205.769,246.405 208.5,241.5 Z"/></g>
<g><path style="opacity:0.949" fill="#e7f5ff" d="M 232.5,246.5 C 236.012,245.945 239.012,246.612 241.5,248.5C 240.772,250.735 239.439,252.568 237.5,254C 231.939,256.562 228.106,260.728 226,266.5C 225.667,272.833 225.333,279.167 225,285.5C 224.626,287.491 223.793,289.158 222.5,290.5C 219.5,289.833 216.5,289.167 213.5,288.5C 214.32,286.86 215.153,285.193 216,283.5C 216.151,276.104 216.818,268.771 218,261.5C 220.993,254.674 225.826,249.674 232.5,246.5 Z"/></g>
<g><path style="opacity:0.98" fill="#e7f4fe" d="M 252.5,237.5 C 262.084,238.473 271.75,238.806 281.5,238.5C 280.738,240.956 280.071,243.456 279.5,246C 281.968,254.888 280.301,262.721 274.5,269.5C 262.345,268.505 250.011,268.171 237.5,268.5C 238.813,263.013 242.147,259.18 247.5,257C 253.476,251.672 255.143,245.172 252.5,237.5 Z"/></g>
<g><path style="opacity:0.93" fill="#e7f5fe" d="M 296.5,246.5 C 299.833,246.5 303.167,246.5 306.5,246.5C 302.591,253.246 297.424,258.913 291,263.5C 289.3,266.467 288.133,269.633 287.5,273C 289.195,279.54 288.529,285.706 285.5,291.5C 283.143,289.902 280.477,288.902 277.5,288.5C 279.561,283.448 279.895,278.281 278.5,273C 278.996,267.854 280.496,263.021 283,258.5C 287.074,253.921 291.574,249.921 296.5,246.5 Z"/></g>
<g><path style="opacity:0.935" fill="#e7f4ff" d="M 314.5,245.5 C 317.725,246.237 321.059,246.903 324.5,247.5C 320.836,251.997 316.669,255.997 312,259.5C 310.241,262.608 309.408,265.941 309.5,269.5C 306.609,268.597 303.609,268.264 300.5,268.5C 300.824,258.185 305.49,250.519 314.5,245.5 Z"/></g>
<g><path style="opacity:0.974" fill="#e7f6ff" d="M 465.5,294.5 C 457.167,294.5 448.833,294.5 440.5,294.5C 443.145,285.359 443.145,276.193 440.5,267C 440.595,261.481 442.595,256.814 446.5,253C 451.966,250.452 456.8,251.286 461,255.5C 467.661,267.944 469.161,280.944 465.5,294.5 Z"/></g>
<g><path style="opacity:0.983" fill="#e7f7ff" d="M 119.5,294.5 C 111.889,295.076 104.556,294.41 97.5,292.5C 99.3295,287.191 101.163,281.857 103,276.5C 107.595,272.319 112.761,271.486 118.5,274C 124.521,280.501 124.855,287.335 119.5,294.5 Z"/></g>
<g><path style="opacity:0.946" fill="#e7f6fe" d="M 373.5,259.5 C 392.778,258.61 399.278,267.276 393,285.5C 386.055,292.069 378.222,293.236 369.5,289C 362.931,282.055 361.764,274.222 366,265.5C 368.114,262.879 370.614,260.879 373.5,259.5 Z M 376.5,268.5 C 385.85,268.365 388.517,272.532 384.5,281C 375.956,284.322 372.123,281.489 373,272.5C 373.69,270.65 374.856,269.316 376.5,268.5 Z"/></g>
<g><path style="opacity:0.976" fill="#e7f7ff" d="M 430.5,294.5 C 422.082,294.802 413.748,294.469 405.5,293.5C 407.033,288.739 408.866,284.072 411,279.5C 417,274.167 423,274.167 429,279.5C 431.52,284.346 432.02,289.346 430.5,294.5 Z"/></g>
<g><path style="opacity:0.978" fill="#e7f6fe" d="M 85.5,289.5 C 78.5,289.5 71.5,289.5 64.5,289.5C 64.1979,278.334 69.5313,274.501 80.5,278C 83.8123,281.099 85.479,284.933 85.5,289.5 Z"/></g>
<g><path style="opacity:0.988" fill="#e7f6ff" d="M 237.5,268.5 C 250.011,268.171 262.345,268.505 274.5,269.5C 271.312,272.03 268.145,274.696 265,277.5C 263.245,281.412 263.079,285.412 264.5,289.5C 254.75,289.806 245.084,289.473 235.5,288.5C 236.162,286.53 236.828,284.53 237.5,282.5C 236.198,277.703 236.198,273.036 237.5,268.5 Z"/></g>
<g><path style="opacity:0.944" fill="#e7f7fe" d="M 300.5,268.5 C 303.609,268.264 306.609,268.597 309.5,269.5C 311.237,281.126 307.571,290.626 298.5,298C 291.668,300.249 289.335,298.082 291.5,291.5C 299.386,285.857 302.386,278.191 300.5,268.5 Z"/></g>
<g><path style="opacity:0.96" fill="#e7fafe" d="M 64.5,289.5 C 71.5,289.5 78.5,289.5 85.5,289.5C 87.8333,296.167 90.1667,302.833 92.5,309.5C 92.6107,310.117 92.944,310.617 93.5,311C 99.8333,311.333 106.167,311.667 112.5,312C 98.5976,311.633 84.5976,311.8 70.5,312.5C 68.3439,304.876 66.3439,297.209 64.5,289.5 Z"/></g>
<g><path style="opacity:0.98" fill="#e7fafe" d="M 235.5,288.5 C 245.084,289.473 254.75,289.806 264.5,289.5C 265.11,294.655 263.944,299.322 261,303.5C 257.234,307.106 253.067,310.106 248.5,312.5C 238.985,312.173 229.652,312.506 220.5,313.5C 219.357,308.684 220.19,304.017 223,299.5C 226.958,295.463 231.124,291.796 235.5,288.5 Z"/></g>
<g><path style="opacity:0.933" fill="#e8fafe" d="M 277.5,288.5 C 280.477,288.902 283.143,289.902 285.5,291.5C 284.928,293.255 284.094,294.922 283,296.5C 278.708,300.057 274.541,303.723 270.5,307.5C 267.713,306.523 264.713,306.19 261.5,306.5C 262.343,303.484 263.843,300.817 266,298.5C 270.601,295.965 274.434,292.631 277.5,288.5 Z"/></g>
<g><path style="opacity:0.951" fill="#e7faff" d="M 330.5,291.5 C 343.32,290.153 348.82,295.819 347,308.5C 343.345,315.07 337.845,317.237 330.5,315C 323.93,311.345 321.763,305.845 324,298.5C 325.694,295.642 327.861,293.309 330.5,291.5 Z M 333.5,300.5 C 338.159,300.015 339.492,301.848 337.5,306C 332.728,306.81 331.395,304.977 333.5,300.5 Z"/></g>
<g><path style="opacity:0.974" fill="#e7fafe" d="M 97.5,292.5 C 104.556,294.41 111.889,295.076 119.5,294.5C 118.208,299.382 116.541,304.048 114.5,308.5C 111.572,307.18 108.239,306.514 104.5,306.5C 100.751,306.535 97.0843,306.869 93.5,307.5C 94.833,302.501 96.1664,297.501 97.5,292.5 Z"/></g>
<g><path style="opacity:0.911" fill="#e8fafe" d="M 213.5,288.5 C 216.5,289.167 219.5,289.833 222.5,290.5C 220.899,294.518 218.232,297.684 214.5,300C 209.999,302.416 205.666,305.083 201.5,308C 196,309.167 193.833,307 195,301.5C 201.323,297.336 207.49,293.003 213.5,288.5 Z"/></g>
<g><path style="opacity:0.973" fill="#e7faff" d="M 405.5,293.5 C 413.748,294.469 422.082,294.802 430.5,294.5C 429.007,300.722 429.674,306.722 432.5,312.5C 424.167,312.5 415.833,312.5 407.5,312.5C 404.44,306.526 403.774,300.193 405.5,293.5 Z"/></g>
<g><path style="opacity:0.996" fill="#e7faff" d="M 440.5,294.5 C 448.833,294.5 457.167,294.5 465.5,294.5C 463.998,298.342 463.332,302.342 463.5,306.5C 454.983,306.174 446.65,306.507 438.5,307.5C 437.957,307.44 437.624,307.107 437.5,306.5C 438.016,302.261 439.016,298.261 440.5,294.5 Z"/></g>
<g><path style="opacity:0.977" fill="#e7fbff" d="M 174.5,312.5 C 165.833,312.5 157.167,312.5 148.5,312.5C 152.276,302.279 159.276,299.113 169.5,303C 172.892,305.285 174.559,308.452 174.5,312.5 Z"/></g>
<g><path style="opacity:0.976" fill="#e7fefd" d="M 114.5,308.5 C 111.243,318.44 108.076,328.44 105,338.5C 104.002,343.143 103.668,347.81 104,352.5C 109.165,348.916 114.498,345.583 120,342.5C 119.117,334.358 117.95,326.191 116.5,318C 118.989,307.759 124.989,305.092 134.5,310C 137.001,314.483 138.501,319.316 139,324.5C 141.945,320.249 145.112,316.249 148.5,312.5C 157.167,312.5 165.833,312.5 174.5,312.5C 174.84,316.131 174.006,319.464 172,322.5C 164.167,331.667 156.333,340.833 148.5,350C 153.833,350.333 159.167,350.667 164.5,351C 171.053,353.73 173.22,358.563 171,365.5C 168.516,370.409 164.516,372.409 159,371.5C 146.534,369.855 134.034,369.021 121.5,369C 118.088,370.455 114.921,372.288 112,374.5C 111.409,375.483 111.743,376.15 113,376.5C 117.897,373.812 123.064,371.812 128.5,370.5C 134.429,370.774 137.762,373.774 138.5,379.5C 107.167,379.5 75.8333,379.5 44.5,379.5C 36.8241,375.66 35.4908,370.16 40.5,363C 42.2784,362.296 44.1118,361.796 46,361.5C 50.6263,362.795 54.793,364.962 58.5,368C 60.8333,368.667 63.1667,368.667 65.5,368C 50.6736,355.518 44.5069,339.685 47,320.5C 52.7527,314.313 58.7527,313.98 65,319.5C 66.46,325.132 67.7933,330.799 69,336.5C 76.1195,351.573 78.4529,350.573 76,333.5C 74.6291,326.348 72.7958,319.348 70.5,312.5C 84.5976,311.8 98.5976,311.633 112.5,312C 106.167,311.667 99.8333,311.333 93.5,311C 92.944,310.617 92.6107,310.117 92.5,309.5C 92.8333,308.833 93.1667,308.167 93.5,307.5C 97.0843,306.869 100.751,306.535 104.5,306.5C 108.239,306.514 111.572,307.18 114.5,308.5 Z"/></g>
<g><path style="opacity:0.902" fill="#e7fdfe" d="M 261.5,306.5 C 264.713,306.19 267.713,306.523 270.5,307.5C 268.179,316.242 268.179,325.075 270.5,334C 269.662,339.251 266.996,340.418 262.5,337.5C 260.709,330.796 259.709,323.963 259.5,317C 259.304,313.195 259.97,309.695 261.5,306.5 Z"/></g>
<g><path style="opacity:0.973" fill="#e7fefe" d="M 463.5,306.5 C 465.257,314.769 466.59,323.102 467.5,331.5C 466.488,340.04 465.155,348.54 463.5,357C 464.755,364.519 466.088,372.019 467.5,379.5C 459.082,379.802 450.748,379.469 442.5,378.5C 440.418,371.256 438.751,363.922 437.5,356.5C 439.381,348.195 441.048,339.862 442.5,331.5C 440.959,323.541 439.626,315.541 438.5,307.5C 446.65,306.507 454.983,306.174 463.5,306.5 Z"/></g>
<g><path style="opacity:0.961" fill="#e7fefe" d="M 248.5,312.5 C 246.831,317.622 245.997,322.956 246,328.5C 244.871,334.636 241.705,339.469 236.5,343C 228.393,347.72 220.06,351.887 211.5,355.5C 208.638,355.636 206.971,354.302 206.5,351.5C 211.067,343.372 215.9,335.372 221,327.5C 221.5,326 222,324.5 222.5,323C 221.434,319.906 220.768,316.74 220.5,313.5C 229.652,312.506 238.985,312.173 248.5,312.5 Z"/></g>
<g><path style="opacity:0.976" fill="#e7fefe" d="M 399.5,381.5 C 391.903,379.533 383.903,378.866 375.5,379.5C 376.111,374.382 374.944,369.715 372,365.5C 371.833,363.5 371.667,361.5 371.5,359.5C 372.24,354.019 373.574,348.686 375.5,343.5C 375.196,339.886 374.029,336.552 372,333.5C 370.301,324.061 372.801,315.895 379.5,309C 389.45,304.641 395.783,307.808 398.5,318.5C 397.419,321.41 396.752,324.41 396.5,327.5C 398.426,332.686 399.76,338.019 400.5,343.5C 399.76,348.981 398.426,354.314 396.5,359.5C 396.804,363.114 397.971,366.448 400,369.5C 400.812,373.689 400.645,377.689 399.5,381.5 Z"/></g>
<g><path style="opacity:0.969" fill="#e7fefe" d="M 407.5,312.5 C 415.833,312.5 424.167,312.5 432.5,312.5C 434.408,317.311 434.908,322.311 434,327.5C 431.991,332.692 430.491,338.026 429.5,343.5C 431.62,350.569 433.287,357.736 434.5,365C 434.251,370.233 432.917,375.066 430.5,379.5C 422.082,379.802 413.748,379.469 405.5,378.5C 407.331,374.172 408.664,369.672 409.5,365C 407.322,357.963 405.655,350.796 404.5,343.5C 405.655,336.204 407.322,329.037 409.5,322C 408.932,318.8 408.265,315.633 407.5,312.5 Z"/></g>
<g><path style="opacity:0.963" fill="#e7fefd" d="M 358.5,379.5 C 350.167,379.5 341.833,379.5 333.5,379.5C 332.366,377.034 332.199,374.367 333,371.5C 334.781,367.605 336.281,363.605 337.5,359.5C 336.281,355.395 334.781,351.395 333,347.5C 332.333,344.833 332.333,342.167 333,339.5C 334.726,335.047 336.726,330.714 339,326.5C 347.064,321.463 353.73,322.796 359,330.5C 359.734,334.965 359.234,339.299 357.5,343.5C 359.75,348.663 361.417,353.997 362.5,359.5C 361.417,365.003 359.75,370.337 357.5,375.5C 357.846,376.849 358.179,378.183 358.5,379.5 Z"/></g>
<g><path style="opacity:0.969" fill="#e6fef6" d="M 405.5,378.5 C 413.748,379.469 422.082,379.802 430.5,379.5C 429.1,387.582 430.433,395.249 434.5,402.5C 425.859,403.498 417.192,403.831 408.5,403.5C 407.63,399.423 406.463,395.423 405,391.5C 404.294,387.113 404.46,382.78 405.5,378.5 Z"/></g>
<g><path style="opacity:0.977" fill="#e6fef7" d="M 44.5,379.5 C 75.8333,379.5 107.167,379.5 138.5,379.5C 139.483,382.792 138.816,385.959 136.5,389C 128.18,393.109 119.514,396.442 110.5,399C 109.62,400.356 109.286,401.856 109.5,403.5C 99.1667,403.5 88.8333,403.5 78.5,403.5C 78.8275,398.456 78.4941,393.456 77.5,388.5C 71.2801,388.524 64.9467,388.357 58.5,388C 52.9685,386.409 48.3019,383.576 44.5,379.5 Z"/></g>
<g><path style="opacity:0.972" fill="#e6fef6" d="M 333.5,379.5 C 341.833,379.5 350.167,379.5 358.5,379.5C 363.792,387.335 363.792,395.168 358.5,403C 350.173,403.5 341.84,403.666 333.5,403.5C 334.815,399.526 336.149,395.526 337.5,391.5C 336.149,387.474 334.815,383.474 333.5,379.5 Z"/></g>
<g><path style="opacity:0.97" fill="#e6fff6" d="M 375.5,379.5 C 383.903,378.866 391.903,379.533 399.5,381.5C 395.27,388.681 395.604,395.681 400.5,402.5C 391.833,403.833 383.167,403.833 374.5,402.5C 370.252,394.521 370.585,386.854 375.5,379.5 Z"/></g>
<g><path style="opacity:0.974" fill="#e6fef6" d="M 442.5,378.5 C 450.748,379.469 459.082,379.802 467.5,379.5C 467.763,387.777 466.43,395.777 463.5,403.5C 454.808,403.831 446.141,403.498 437.5,402.5C 441.071,394.885 442.737,386.885 442.5,378.5 Z"/></g>
<g><path style="opacity:0.004" fill="#fefffe" d="M 467.5,402.5 C 468.833,403.167 468.833,403.167 467.5,402.5 Z"/></g>
<g><path style="opacity:0.829" fill="#bce6e7" d="M 22.5,414.5 C 27.0986,414.2 31.5986,414.533 36,415.5C 36.7826,417.433 36.2826,418.933 34.5,420C 30.8333,420.333 27.1667,420.667 23.5,421C 21.0991,424.969 19.0991,429.135 17.5,433.5C 19.4532,437.909 21.7866,442.076 24.5,446C 28.1667,446.333 31.8333,446.667 35.5,447C 36.8333,448.333 36.8333,449.667 35.5,451C 30.0509,451.896 24.7175,451.563 19.5,450C 14.8331,443.863 12.6664,437.03 13,429.5C 15.2063,423.722 18.373,418.722 22.5,414.5 Z"/></g>
<g><path style="opacity:0.867" fill="#bce6e7" d="M 44.5,414.5 C 45.8333,414.5 47.1667,414.5 48.5,414.5C 48.5,419.833 48.5,425.167 48.5,430.5C 52.8333,430.5 57.1667,430.5 61.5,430.5C 61.3342,425.821 61.5008,421.155 62,416.5C 63.0665,414.717 64.5665,414.217 66.5,415C 67.8333,427 67.8333,439 66.5,451C 64.8876,451.72 63.3876,451.554 62,450.5C 61.5007,445.511 61.3341,440.511 61.5,435.5C 57.1667,435.5 52.8333,435.5 48.5,435.5C 48.5,440.833 48.5,446.167 48.5,451.5C 46.8333,451.5 45.1667,451.5 43.5,451.5C 43.1874,439.087 43.5208,426.753 44.5,414.5 Z"/></g>
<g><path style="opacity:0.856" fill="#bce6e7" d="M 75.5,414.5 C 77.451,414.227 78.951,414.893 80,416.5C 80.3333,426.167 80.6667,435.833 81,445.5C 82.9063,446.131 84.9063,446.464 87,446.5C 89.3023,446.4 91.3023,445.733 93,444.5C 93.4998,434.506 93.6665,424.506 93.5,414.5C 95.1439,414.286 96.6439,414.62 98,415.5C 98.6667,426.167 98.6667,436.833 98,447.5C 97.5,449.333 96.3333,450.5 94.5,451C 89.1667,451.667 83.8333,451.667 78.5,451C 76.741,449.992 75.5743,448.492 75,446.5C 74.1917,435.757 74.3583,425.09 75.5,414.5 Z"/></g>
<g><path style="opacity:0.82" fill="#bce6e7" d="M 105.5,414.5 C 111.842,414.334 118.175,414.5 124.5,415C 126.002,415.583 127.335,416.416 128.5,417.5C 132.198,426.684 129.198,432.017 119.5,433.5C 122.667,437.833 125.833,442.167 129,446.5C 129.494,448.134 129.66,449.801 129.5,451.5C 127.712,451.785 126.045,451.452 124.5,450.5C 120.138,444.638 115.972,438.638 112,432.5C 111.667,438.5 111.333,444.5 111,450.5C 109.333,451.833 107.667,451.833 106,450.5C 105.5,438.505 105.333,426.505 105.5,414.5 Z M 111.5,420.5 C 115.514,420.334 119.514,420.501 123.5,421C 124.833,422.667 124.833,424.333 123.5,426C 119.514,426.499 115.514,426.666 111.5,426.5C 111.5,424.5 111.5,422.5 111.5,420.5 Z"/></g>
<g><path style="opacity:0.855" fill="#bce6e7" d="M 147.5,414.5 C 149.911,414.137 151.411,415.137 152,417.5C 155.469,428.709 158.302,440.042 160.5,451.5C 159.127,451.657 157.793,451.49 156.5,451C 155.214,448.978 154.214,446.811 153.5,444.5C 150.554,443.345 147.554,443.179 144.5,444C 143.5,446.333 142.5,448.667 141.5,451C 139.359,451.884 137.693,451.384 136.5,449.5C 139.978,437.733 143.645,426.067 147.5,414.5 Z M 148.5,427.5 C 150.074,430.907 151.074,434.573 151.5,438.5C 149.473,438.662 147.473,438.495 145.5,438C 147.042,434.666 148.042,431.166 148.5,427.5 Z"/></g>
<g><path style="opacity:0.858" fill="#bce6e7" d="M 168.5,414.5 C 170.144,414.286 171.644,414.62 173,415.5C 173.333,425.5 173.667,435.5 174,445.5C 178,446.833 182,446.833 186,445.5C 186.333,435.5 186.667,425.5 187,415.5C 188.494,414.253 189.994,414.253 191.5,415.5C 192.641,425.453 192.808,435.453 192,445.5C 191.654,447.848 190.487,449.681 188.5,451C 182.833,451.667 177.167,451.667 171.5,451C 170.667,450.167 169.833,449.333 169,448.5C 168.5,437.172 168.333,425.838 168.5,414.5 Z"/></g>
<g><path style="opacity:0.848" fill="#bce6e7" d="M 199.5,414.5 C 201.924,414.192 204.257,414.526 206.5,415.5C 208.177,417.54 209.844,419.54 211.5,421.5C 213.327,419.5 214.994,417.333 216.5,415C 218.81,414.503 221.143,414.337 223.5,414.5C 223.667,426.505 223.5,438.505 223,450.5C 221.333,451.833 219.667,451.833 218,450.5C 217.667,441.833 217.333,433.167 217,424.5C 215.614,427.534 213.781,430.2 211.5,432.5C 209.248,429.632 207.082,426.632 205,423.5C 204.5,432.827 204.334,442.161 204.5,451.5C 202.833,451.5 201.167,451.5 199.5,451.5C 199.5,439.167 199.5,426.833 199.5,414.5 Z"/></g>
<g><path style="opacity:0.827" fill="#bce6e7" d="M 231.5,414.5 C 238.841,414.334 246.174,414.5 253.5,415C 254.747,416.494 254.747,417.994 253.5,419.5C 250.916,420.393 248.249,420.726 245.5,420.5C 245.5,429.167 245.5,437.833 245.5,446.5C 248.187,446.336 250.854,446.503 253.5,447C 254.833,448.333 254.833,449.667 253.5,451C 245.841,451.5 238.174,451.666 230.5,451.5C 230.286,449.856 230.62,448.356 231.5,447C 234.146,446.503 236.813,446.336 239.5,446.5C 239.5,437.833 239.5,429.167 239.5,420.5C 236.751,420.726 234.084,420.393 231.5,419.5C 230.334,417.833 230.334,416.166 231.5,414.5 Z"/></g>
<g><path style="opacity:0.839" fill="#bce6e7" d="M 302.5,414.5 C 306.273,413.822 309.106,415.156 311,418.5C 313.836,422.996 315.669,427.83 316.5,433C 315.333,438.843 313.166,444.343 310,449.5C 306.057,452.366 302.39,452.032 299,448.5C 296.28,443.728 294.113,438.728 292.5,433.5C 294.573,426.348 297.906,420.014 302.5,414.5 Z M 303.5,420.5 C 304.496,420.414 305.329,420.748 306,421.5C 308.11,425.386 309.943,429.386 311.5,433.5C 309.863,438.107 307.696,442.44 305,446.5C 302.162,442.323 299.995,437.823 298.5,433C 300.034,428.768 301.7,424.601 303.5,420.5 Z"/></g>
<g><path style="opacity:0.808" fill="#bce6e7" d="M 324.5,414.5 C 326.144,414.286 327.644,414.62 329,415.5C 329.333,419.167 329.667,422.833 330,426.5C 334.5,422.667 339,418.833 343.5,415C 347.088,414.389 348.254,415.889 347,419.5C 341.658,424.01 336.492,428.677 331.5,433.5C 336.313,438.07 341.313,442.403 346.5,446.5C 347.452,448.045 347.785,449.712 347.5,451.5C 345.345,451.628 343.345,451.128 341.5,450C 337.383,446.85 333.549,443.35 330,439.5C 329.667,443.167 329.333,446.833 329,450.5C 327.333,451.833 325.667,451.833 324,450.5C 323.208,438.454 323.374,426.454 324.5,414.5 Z"/></g>
<g><path style="opacity:0.883" fill="#bce6e7" d="M 356.5,414.5 C 363.863,414.169 371.197,414.503 378.5,415.5C 379.859,417.306 379.525,418.806 377.5,420C 374.854,420.497 372.187,420.664 369.5,420.5C 369.5,429.167 369.5,437.833 369.5,446.5C 372.518,446.335 375.518,446.502 378.5,447C 379.833,448.333 379.833,449.667 378.5,451C 370.841,451.5 363.174,451.666 355.5,451.5C 355.5,449.833 355.5,448.167 355.5,446.5C 358.5,446.5 361.5,446.5 364.5,446.5C 364.5,437.833 364.5,429.167 364.5,420.5C 361.813,420.664 359.146,420.497 356.5,420C 355.248,418.172 355.248,416.339 356.5,414.5 Z"/></g>
<g><path style="opacity:0.856" fill="#bce6e7" d="M 386.5,414.5 C 388.924,414.192 391.257,414.526 393.5,415.5C 397.275,423.383 400.775,431.383 404,439.5C 404.333,431.833 404.667,424.167 405,416.5C 406.312,414.342 407.978,414.009 410,415.5C 410.5,427.495 410.667,439.495 410.5,451.5C 407.881,451.768 405.381,451.435 403,450.5C 399.059,442.284 395.392,433.951 392,425.5C 391.5,434.16 391.334,442.827 391.5,451.5C 389.833,451.5 388.167,451.5 386.5,451.5C 386.5,439.167 386.5,426.833 386.5,414.5 Z"/></g>
<g><path style="opacity:0.853" fill="#bce6e7" d="M 428.5,414.5 C 429.822,414.33 430.989,414.663 432,415.5C 435.798,427.361 438.965,439.361 441.5,451.5C 436.444,451.455 434.111,448.788 434.5,443.5C 431.167,443.5 427.833,443.5 424.5,443.5C 424.534,446.199 423.867,448.699 422.5,451C 420.075,451.986 418.409,451.319 417.5,449C 420.693,437.258 424.36,425.758 428.5,414.5 Z M 429.5,428.5 C 430.87,431.619 431.87,434.952 432.5,438.5C 430.396,438.799 428.396,438.466 426.5,437.5C 427.659,434.519 428.659,431.519 429.5,428.5 Z"/></g>
<g><path style="opacity:0.842" fill="#bce6e7" d="M 449.5,414.5 C 451.451,414.227 452.951,414.893 454,416.5C 454.025,426.66 454.691,436.66 456,446.5C 457.289,440.673 457.956,434.673 458,428.5C 459.312,426.342 460.978,426.009 463,427.5C 463.333,433.5 463.667,439.5 464,445.5C 465.395,446.815 466.395,446.481 467,444.5C 467.5,434.506 467.666,424.506 467.5,414.5C 469.144,414.286 470.644,414.62 472,415.5C 472.667,426.167 472.667,436.833 472,447.5C 471.044,448.579 470.211,449.745 469.5,451C 463.5,451.667 457.5,451.667 451.5,451C 450.54,449.581 449.707,448.081 449,446.5C 448.192,435.757 448.358,425.09 449.5,414.5 Z"/></g>
<g><path style="opacity:0.855" fill="#bce6e7" d="M 490.5,414.5 C 492.911,414.137 494.411,415.137 495,417.5C 498.469,428.709 501.302,440.042 503.5,451.5C 502.127,451.657 500.793,451.49 499.5,451C 498.214,448.978 497.214,446.811 496.5,444.5C 493.554,443.345 490.554,443.179 487.5,444C 486.5,446.333 485.5,448.667 484.5,451C 482.359,451.884 480.693,451.384 479.5,449.5C 482.978,437.733 486.645,426.067 490.5,414.5 Z M 491.5,427.5 C 493.074,430.907 494.074,434.573 494.5,438.5C 492.473,438.662 490.473,438.495 488.5,438C 490.042,434.666 491.042,431.166 491.5,427.5 Z"/></g>
<g><path style="opacity:0.892" fill="#bce6e7" d="M 265.5,430.5 C 270.844,430.334 276.177,430.501 281.5,431C 282.833,432.667 282.833,434.333 281.5,436C 276.136,436.829 270.802,436.663 265.5,435.5C 264.465,433.872 264.465,432.205 265.5,430.5 Z"/></g>
</svg>
